<svg xmlns="http://www.w3.org/2000/svg" viewBox="0 0 292.41 55.69"><defs><style>.cls-1{fill:#ade026;}.cls-2{fill:#a7d41c;}.cls-3{fill:#b8e62d;}.cls-4{fill:#703002;}.cls-5{fill:#a25c1a;}.cls-6{font-size:36px;font-family:MyanmarSangamMN, Myanmar Sangam MN;}</style></defs><title>gjong</title><g id="BACKGROUND_2" data-name="BACKGROUND 2"><path class="cls-1" d="M469.79,54.29a22.32,22.32,0,0,0,8.57-2.67,30,30,0,0,0,7.4-6.85c2.26-2.8,4.7-5.91,4.81-9.67,0-.1,0-.2,0-.3a28.44,28.44,0,0,0-1.33-2.61,12.29,12.29,0,0,0-6.33-5.29,11.4,11.4,0,0,0-4.11-.73c-1.2,0-2.83.93-3.94.72s-1.34-2.32-1.76-3.33a14.35,14.35,0,0,0-2.39-3.88,11.39,11.39,0,0,0-8-3.87,23.74,23.74,0,0,0-5.07.18,12.35,12.35,0,0,0-8.29,4.77c-5,6.85-6.87,16.22-4.11,24.3l.38,1.1C452.4,51.56,461.65,55.23,469.79,54.29Z" transform="translate(-199.6 -15.59)"/><path class="cls-2" d="M490.75,46.34a12.37,12.37,0,0,0,.57-9.55,20.87,20.87,0,0,0-.77-2c0,.1,0,.21,0,.3-.11,3.76-2.55,6.87-4.81,9.67a30,30,0,0,1-7.4,6.85,22.32,22.32,0,0,1-8.57,2.67c-8.14.95-17.38-2.72-24.13-8.13a23.72,23.72,0,0,0,3.48,7,11.42,11.42,0,0,0,3.52,2.59c.73.43,1.31,1.1,2,1.57s1.48.57,2.17,1c1.64,1.07,3.07,2.29,5,2.71a26.6,26.6,0,0,0,9-.16C479.3,59.73,486.84,53.85,490.75,46.34Z" transform="translate(-199.6 -15.59)"/><path class="cls-3" d="M462.47,19.53a3.27,3.27,0,0,0-2.84.25c-1.8,1-2.86,3.62-1.6,5.43,1.5,2.16,4.62,3.1,6.5,1.06S464.93,20.45,462.47,19.53Z" transform="translate(-199.6 -15.59)"/><path class="cls-4" d="M485.21,16a2,2,0,0,1,.1-.42,11.05,11.05,0,0,0-2.75,1.13c-4.49,2.28-6.71,7.06-9.14,11l.29.92c1.82,2.23,2.32-1.16,2.94-2.37a18.34,18.34,0,0,1,3.44-4.16,21.32,21.32,0,0,1,2.75-2.25c.85-.44,2.69-.41,3.83-.79A3.9,3.9,0,0,1,485.21,16Z" transform="translate(-199.6 -15.59)"/><path class="cls-5" d="M486.18,15.66a2,2,0,0,0-.88,0,2,2,0,0,0-.1.42,3.9,3.9,0,0,0,1.46,3,1.78,1.78,0,0,0,.76-.43C488.4,17.65,487.33,16,486.18,15.66Z" transform="translate(-199.6 -15.59)"/></g><g id="BACKGROUND_1" data-name="BACKGROUND 1"><text class="cls-6" transform="translate(0.11 32.44) rotate(-0.2)">G. de Jong super </text></g></svg>